<svg width="20" height="20" viewBox="0 0 20 20" fill="none" xmlns="http://www.w3.org/2000/svg">
<path d="M3.468 4.969C4.312 4.969 4.968 4.313 4.968 3.469C4.968 2.625 4.312 1.969 3.468 1.969C2.624 1.969 1.968 2.625 1.968 3.469C1.968 4.313 2.624 4.969 3.468 4.969ZM19.406 9.563C19.781 9.938 19.969 10.407 19.969 10.969C19.969 11.531 19.781 12 19.406 12.375L12.375 19.406C12 19.781 11.531 19.969 10.969 19.969C10.407 19.969 9.938 19.781 9.563 19.406L0.563 10.406C0.188 10.031 0 9.562 0 9V1.969C0 0.891 0.891 0 1.969 0H9C9.563 0 10.031 0.188 10.406 0.563L19.406 9.563Z" fill="#189E6D"/>
</svg>
